<svg height="464pt" viewBox="0 0 464 464" width="464pt" xmlns="http://www.w3.org/2000/svg"><path d="m464 232c0 128.128906-103.871094 232-232 232s-232-103.871094-232-232 103.871094-232 232-232 232 103.871094 232 232zm0 0" fill="#32b1cc"/><path d="m400 232c0 92.785156-75.214844 168-168 168s-168-75.214844-168-168 75.214844-168 168-168 168 75.214844 168 168zm0 0" fill="#9de0d5"/><path d="m232 230.230469v-81.335938l-88 29.335938v61.769531c-11.695312-.105469-21.796875 8.15625-24.007812 19.640625-2.210938 11.484375 4.097656 22.910156 14.996093 27.15625 10.898438 4.242187 23.269531.09375 29.410157-9.859375 6.136718-9.953125 4.289062-22.875-4.398438-30.707031v-56.460938l56-18.664062v52.894531c-11.695312-.105469-21.796875 8.15625-24.007812 19.640625-2.210938 11.484375 4.097656 22.910156 14.996093 27.15625 10.898438 4.242187 23.269531.09375 29.410157-9.859375 6.136718-9.953125 4.289062-22.875-4.398438-30.707031zm0 0" fill="#f98c96"/><path d="m149.480469 208.417969 71.992187-24.023438 5.0625 15.171875-71.996094 24.023438zm0 0" fill="#f98c96"/><path d="m336 221.273438v-49.410157l-72 30.863281v77.273438c-11.695312-.105469-21.796875 8.15625-24.007812 19.640625-2.210938 11.484375 4.097656 22.910156 14.996093 27.15625 10.898438 4.242187 23.269531.09375 29.410157-9.859375 6.136718-9.953125 4.289062-22.875-4.398438-30.707031v-40.957031zm-56-8 40-17.136719v14.589843l-40 17.136719zm0 0" fill="#f98c96"/><g fill="#f4f4e6"><path d="m24 224h16v16h-16zm0 0"/><path d="m232 440c-189.121094 0-207.800781-181.449219-208-183.273438l16-1.460937c.609375 6.894531 17.664062 168.734375 192 168.734375zm0 0"/><path d="m224 24h16v16h-16zm0 0"/><path d="m385.34375 116.441406c-45.34375-68.035156-129.222656-76.394531-130.0625-76.441406l1.4375-16c3.753906.34375 92.386719 9.199219 141.9375 83.527344zm0 0"/></g></svg>